# xmcd
#
# Track frame offsets:
#	150
#	13700
#	29315
#	41915
#	61815
#	75380
#	92102
#	104717
#
# Disc length: 1596 seconds
#
# Revision: 1
# Processed by: cddbd v1.5.2PL0 Copyright (c) Steve Scherf et al.
# Submitted via: audiograbber 1.83.01
#
DISCID=5f063a08
DTITLE=Memphis Radio Kings - Memphis Radio Kings
DYEAR=2001
DGENRE=Country Rock
TTITLE0=Givin' Up
TTITLE1=Nicotine
TTITLE2=Throw My Ashes
TTITLE3=Judy
TTITLE4=Lesser Of The Evils
TTITLE5=You Belong
TTITLE6=My Instant Karma
TTITLE7=Do You Still Want Me
EXTD=
EXTT0=
EXTT1=
EXTT2=
EXTT3=
EXTT4=
EXTT5=
EXTT6=
EXTT7=
PLAYORDER=
